<svg width="25" height="19" viewBox="0 0 25 19" fill="none" xmlns="http://www.w3.org/2000/svg">
<g id="SVG" clip-path="url(#clip0_1_448)">
<path id="Path 909" fill-rule="evenodd" clip-rule="evenodd" d="M10.2052 16.4848L7.3826 18.3647C7.302 18.4096 7.2114 18.4335 7.11914 18.4342C7.02689 18.4348 6.93596 18.4123 6.85471 18.3685C6.77347 18.3248 6.70453 18.2613 6.65425 18.1839C6.60397 18.1066 6.57397 18.0178 6.567 17.9257V13.7859L18.1073 5.12641L4.31012 12.465L0.731903 10.0212C0.61989 9.94141 0.532023 9.83232 0.477961 9.70586C0.423898 9.57941 0.405734 9.44049 0.425465 9.30437C0.445197 9.16826 0.502059 9.04023 0.589801 8.93435C0.677543 8.82847 0.792768 8.74884 0.922808 8.70422L24.1293 0.295672C24.4431 0.169679 24.694 0.546659 24.5061 0.860642L14.0313 18.1787C13.9136 18.3436 13.736 18.4557 13.5365 18.4909C13.337 18.5261 13.1317 18.4815 12.9648 18.3667L10.2052 16.4848Z" fill="white"/>
</g>
<defs>
<clipPath id="clip0_1_448">
<rect width="24.15" height="18.23" fill="white" transform="translate(0.420044 0.270142)"/>
</clipPath>
</defs>
</svg>
