<svg width="25" height="19" viewBox="0 0 25 19" fill="none" xmlns="http://www.w3.org/2000/svg">
<g id="SVG" clip-path="url(#clip0_1_442)">
<path id="Path 908" d="M21.7045 0.510986H3.5255C2.72333 0.51178 1.95425 0.83081 1.38703 1.39806C0.819806 1.96531 0.500794 2.73444 0.5 3.53666V15.2235C0.502115 16.025 0.821678 16.7929 1.38873 17.3593C1.95577 17.9256 2.7241 18.2442 3.5255 18.2452H21.7045C22.5066 18.2442 23.2755 17.925 23.8427 17.3579C24.4098 16.7907 24.7289 16.0217 24.73 15.2195V3.53666C24.7292 2.73444 24.4102 1.96531 23.843 1.39806C23.2758 0.83081 22.5067 0.51178 21.7045 0.510986ZM3.5255 1.36761H21.7045C22.0693 1.36794 22.4281 1.46036 22.7477 1.63632C23.0673 1.81227 23.3372 2.06607 23.5326 2.37417L14.2092 11.1803C13.7748 11.5803 13.206 11.8023 12.6155 11.8023C12.025 11.8023 11.4562 11.5803 11.0218 11.1803L1.69941 2.37517C1.89453 2.06723 2.16416 1.81347 2.48334 1.63736C2.80252 1.46125 3.16096 1.36847 3.5255 1.36761ZM1.37757 15.5084C1.36442 15.414 1.35741 15.3189 1.35658 15.2235V3.53666C1.35729 3.44134 1.3643 3.34618 1.37757 3.25179L7.86535 9.3801L1.37757 15.5084ZM21.7045 17.3926H3.5255C3.16104 17.3919 2.80263 17.2994 2.48343 17.1234C2.16424 16.9475 1.89458 16.6939 1.69941 16.386L8.49604 9.96984L10.4391 11.804C11.0335 12.3522 11.8124 12.6566 12.621 12.6566C13.4296 12.6566 14.2085 12.3522 14.8029 11.804L16.745 9.96984L23.5416 16.385C23.3456 16.6947 23.0743 16.9495 22.753 17.1257C22.4317 17.302 22.0709 17.3938 21.7045 17.3926ZM23.8724 3.53666V15.2235C23.8716 15.3189 23.8646 15.414 23.8514 15.5084L17.3636 9.3801L23.8524 3.25179C23.8651 3.34622 23.8718 3.44137 23.8724 3.53666Z" fill="#8D8D8D"/>
</g>
<defs>
<clipPath id="clip0_1_442">
<rect width="24.23" height="17.74" fill="white" transform="translate(0.5 0.510132)"/>
</clipPath>
</defs>
</svg>
